<svg xmlns="http://www.w3.org/2000/svg">
  <symbol id="icon-person" viewBox="0 0 24 24">
    <g fill="none" stroke="currentColor" stroke-linecap="round" stroke-linejoin="round" stroke-width="1.8">
      <circle cx="12" cy="7" r="3" />
      <path d="M5.5 20c.7-4.1 2.9-6.2 6.5-6.2s5.8 2.1 6.5 6.2" />
    </g>
  </symbol>
  <symbol id="icon-client" viewBox="0 0 24 24">
    <g fill="none" stroke="currentColor" stroke-linecap="round" stroke-linejoin="round" stroke-width="1.8">
      <rect x="3" y="4" width="18" height="14" rx="2" />
      <path d="M3 8h18M8 21h8M12 18v3" />
      <circle cx="6" cy="6" r=".6" fill="currentColor" stroke="none" />
    </g>
  </symbol>
  <symbol id="icon-tool" viewBox="0 0 24 24">
    <path d="M14.7 5.1a5 5 0 0 0-6.2 6.2L3.8 16a2.7 2.7 0 1 0 3.8 3.8l4.7-4.7a5 5 0 0 0 6.6-5.8l-3 3-3.2-.8-.8-3.2 2.8-3.2Z" fill="none" stroke="currentColor" stroke-linecap="round" stroke-linejoin="round" stroke-width="1.8" />
  </symbol>
  <symbol id="icon-api" viewBox="0 0 24 24">
    <g fill="none" stroke="currentColor" stroke-linecap="round" stroke-linejoin="round" stroke-width="1.8">
      <path d="m8 5-4 7 4 7M16 5l4 7-4 7M14 4l-4 16" />
    </g>
  </symbol>
  <symbol id="icon-service" viewBox="0 0 24 24">
    <g fill="none" stroke="currentColor" stroke-linecap="round" stroke-linejoin="round" stroke-width="1.8">
      <circle cx="6" cy="12" r="2.5" />
      <circle cx="18" cy="7" r="2.5" />
      <circle cx="18" cy="17" r="2.5" />
      <path d="m8.3 10.9 7.3-3M8.3 13.1l7.3 3" />
    </g>
  </symbol>
  <symbol id="icon-repository" viewBox="0 0 24 24">
    <g fill="none" stroke="currentColor" stroke-linecap="round" stroke-linejoin="round" stroke-width="1.8">
      <path d="M4 7.5 12 4l8 3.5-8 3.5-8-3.5ZM4 12l8 3.5 8-3.5M4 16.5 12 20l8-3.5" />
    </g>
  </symbol>
  <symbol id="icon-database" viewBox="0 0 24 24">
    <g fill="none" stroke="currentColor" stroke-linecap="round" stroke-linejoin="round" stroke-width="1.8">
      <ellipse cx="12" cy="5.5" rx="8" ry="3" />
      <path d="M4 5.5v6c0 1.7 3.6 3 8 3s8-1.3 8-3v-6M4 11.5v6c0 1.7 3.6 3 8 3s8-1.3 8-3v-6" />
    </g>
  </symbol>
  <symbol id="icon-gate" viewBox="0 0 24 24">
    <g fill="none" stroke="currentColor" stroke-linecap="round" stroke-linejoin="round" stroke-width="1.8">
      <path d="M12 3 21 12 12 21 3 12 12 3Z" />
      <path d="m8.5 12 2.2 2.2 4.8-4.8" />
    </g>
  </symbol>
  <symbol id="icon-security" viewBox="0 0 24 24">
    <g fill="none" stroke="currentColor" stroke-linecap="round" stroke-linejoin="round" stroke-width="1.8">
      <path d="M12 3 20 6v5.5c0 4.5-3.2 7.7-8 9.5-4.8-1.8-8-5-8-9.5V6l8-3Z" />
      <path d="m8.5 12 2.2 2.2 4.8-4.8" />
    </g>
  </symbol>
  <symbol id="icon-token" viewBox="0 0 24 24">
    <g fill="none" stroke="currentColor" stroke-linecap="round" stroke-linejoin="round" stroke-width="1.8">
      <circle cx="8" cy="12" r="4" />
      <path d="M12 12h9M17 12v3M20 12v2" />
    </g>
  </symbol>
  <symbol id="icon-external" viewBox="0 0 24 24">
    <g fill="none" stroke="currentColor" stroke-linecap="round" stroke-linejoin="round" stroke-width="1.8">
      <circle cx="12" cy="12" r="9" />
      <path d="M3 12h18M12 3c2.4 2.5 3.5 5.5 3.5 9S14.4 18.5 12 21M12 3C9.6 5.5 8.5 8.5 8.5 12S9.6 18.5 12 21" />
    </g>
  </symbol>
  <symbol id="icon-mail" viewBox="0 0 24 24">
    <g fill="none" stroke="currentColor" stroke-linecap="round" stroke-linejoin="round" stroke-width="1.8">
      <rect x="3" y="5" width="18" height="14" rx="2" />
      <path d="m4 7 8 6 8-6" />
    </g>
  </symbol>
  <symbol id="icon-test" viewBox="0 0 24 24">
    <g fill="none" stroke="currentColor" stroke-linecap="round" stroke-linejoin="round" stroke-width="1.8">
      <path d="M9 3h6M10 3v5l-5 9a2.6 2.6 0 0 0 2.3 4h9.4a2.6 2.6 0 0 0 2.3-4l-5-9V3" />
      <path d="M7.5 15h9M9.5 17.5l1.5 1.5 3.5-3.5" />
    </g>
  </symbol>
  <symbol id="icon-fixture" viewBox="0 0 24 24">
    <g fill="none" stroke="currentColor" stroke-linecap="round" stroke-linejoin="round" stroke-width="1.8">
      <rect x="4" y="4" width="7" height="7" rx="1" />
      <rect x="13" y="4" width="7" height="7" rx="1" />
      <rect x="4" y="13" width="7" height="7" rx="1" />
      <path d="M15 16.5h3M16.5 15v3" />
    </g>
  </symbol>
  <symbol id="icon-cache" viewBox="0 0 24 24">
    <g fill="none" stroke="currentColor" stroke-linecap="round" stroke-linejoin="round" stroke-width="1.8">
      <ellipse cx="10" cy="6" rx="6" ry="2.5" />
      <path d="M4 6v5c0 1.4 2.7 2.5 6 2.5M4 11v5c0 1.4 2.7 2.5 6 2.5" />
      <path d="m17 10-3 5h3l-2 5 5-7h-3l2-3" />
    </g>
  </symbol>
  <symbol id="icon-websocket" viewBox="0 0 24 24">
    <g fill="none" stroke="currentColor" stroke-linecap="round" stroke-linejoin="round" stroke-width="1.8">
      <path d="M7 4v5M4.5 6.5h5M17 15v5M14.5 17.5h5" />
      <path d="M7 11a6 6 0 0 1 10-4M17 13a6 6 0 0 1-10 4" />
      <path d="m14 4 3 3 3-3M10 20l-3-3-3 3" />
    </g>
  </symbol>
  <symbol id="icon-broker" viewBox="0 0 24 24">
    <g fill="none" stroke="currentColor" stroke-linecap="round" stroke-linejoin="round" stroke-width="1.8">
      <rect x="9" y="9" width="6" height="6" rx="1.5" />
      <circle cx="4" cy="5" r="2" />
      <circle cx="20" cy="5" r="2" />
      <circle cx="4" cy="19" r="2" />
      <circle cx="20" cy="19" r="2" />
      <path d="m5.5 6.5 4 3M18.5 6.5l-4 3M5.5 17.5l4-3M18.5 17.5l-4-3" />
    </g>
  </symbol>
  <symbol id="icon-runtime" viewBox="0 0 24 24">
    <g fill="none" stroke="currentColor" stroke-linecap="round" stroke-linejoin="round" stroke-width="1.8">
      <path d="m12 3 8 4.5v9L12 21l-8-4.5v-9L12 3Z" />
      <path d="m4.5 7.7 7.5 4.2 7.5-4.2M12 12v9" />
      <path d="m10 7 4 2-4 2V7Z" />
    </g>
  </symbol>
  <symbol id="icon-artifact" viewBox="0 0 24 24">
    <g fill="none" stroke="currentColor" stroke-linecap="round" stroke-linejoin="round" stroke-width="1.8">
      <path d="m4 7 8-4 8 4-8 4-8-4Z" />
      <path d="M4 7v10l8 4 8-4V7M12 11v10" />
    </g>
  </symbol>
  <symbol id="icon-config" viewBox="0 0 24 24">
    <g fill="none" stroke="currentColor" stroke-linecap="round" stroke-linejoin="round" stroke-width="1.8">
      <path d="M4 6h8M16 6h4M4 12h3M11 12h9M4 18h10M18 18h2" />
      <circle cx="14" cy="6" r="2" />
      <circle cx="9" cy="12" r="2" />
      <circle cx="16" cy="18" r="2" />
    </g>
  </symbol>
  <symbol id="icon-pipeline" viewBox="0 0 24 24">
    <g fill="none" stroke="currentColor" stroke-linecap="round" stroke-linejoin="round" stroke-width="1.8">
      <rect x="2.5" y="8.5" width="5" height="7" rx="1" />
      <rect x="9.5" y="8.5" width="5" height="7" rx="1" />
      <rect x="16.5" y="8.5" width="5" height="7" rx="1" />
      <path d="M7.5 12h2M14.5 12h2" />
    </g>
  </symbol>
  <symbol id="icon-host" viewBox="0 0 24 24">
    <g fill="none" stroke="currentColor" stroke-linecap="round" stroke-linejoin="round" stroke-width="1.8">
      <rect x="4" y="3" width="16" height="8" rx="2" />
      <rect x="4" y="13" width="16" height="8" rx="2" />
      <path d="M8 7h.1M8 17h.1M12 7h5M12 17h5" />
    </g>
  </symbol>
  <symbol id="icon-refactor" viewBox="0 0 24 24">
    <g fill="none" stroke="currentColor" stroke-linecap="round" stroke-linejoin="round" stroke-width="1.8">
      <path d="M4 6h5c4 0 3 12 7 12h4M4 18h5c4 0 3-12 7-12h4" />
      <path d="m17 3 3 3-3 3M17 15l3 3-3 3" />
    </g>
  </symbol>
  <symbol id="icon-event" viewBox="0 0 24 24">
    <g fill="none" stroke="currentColor" stroke-linecap="round" stroke-linejoin="round" stroke-width="1.8">
      <path d="M4 5h16v11H9l-5 4V5Z" />
      <path d="m13 7-4 5h3l-1 3 4-5h-3l1-3Z" />
    </g>
  </symbol>
  <symbol id="icon-queue" viewBox="0 0 24 24">
    <g fill="none" stroke="currentColor" stroke-linecap="round" stroke-linejoin="round" stroke-width="1.8">
      <path d="M4 6h11M4 12h11M4 18h11" />
      <path d="m16 9 4 3-4 3" />
    </g>
  </symbol>
  <symbol id="icon-consumer" viewBox="0 0 24 24">
    <g fill="none" stroke="currentColor" stroke-linecap="round" stroke-linejoin="round" stroke-width="1.8">
      <path d="M4 12h10M11 8l4 4-4 4" />
      <path d="M16 5h4v14h-4" />
    </g>
  </symbol>
  <symbol id="icon-evidence" viewBox="0 0 24 24">
    <g fill="none" stroke="currentColor" stroke-linecap="round" stroke-linejoin="round" stroke-width="1.8">
      <path d="M6 3h9l4 4v14H6V3Z" />
      <path d="M15 3v5h4M9 13l2 2 4-4" />
    </g>
  </symbol>
  <symbol id="icon-memory" viewBox="0 0 24 24">
    <g fill="none" stroke="currentColor" stroke-linecap="round" stroke-linejoin="round" stroke-width="1.8">
      <rect x="6" y="6" width="12" height="12" rx="2" />
      <path d="M9 1v5M15 1v5M9 18v5M15 18v5M1 9h5M1 15h5M18 9h5M18 15h5M10 10h4v4h-4z" />
    </g>
  </symbol>
  <symbol id="icon-handler" viewBox="0 0 24 24">
    <g fill="none" stroke="currentColor" stroke-linecap="round" stroke-linejoin="round" stroke-width="1.8">
      <path d="M20 6H9a5 5 0 0 0 0 10h6" />
      <path d="m16 12 4 4-4 4" />
      <path d="M5 6h.1" />
    </g>
  </symbol>
  <symbol id="icon-response" viewBox="0 0 24 24">
    <g fill="none" stroke="currentColor" stroke-linecap="round" stroke-linejoin="round" stroke-width="1.8">
      <path d="M20 7H8a4 4 0 0 0 0 8h9" />
      <path d="m13 11 4 4-4 4" />
      <path d="M4 4v6" />
    </g>
  </symbol>
</svg>
